<svg version="1.1" id="Layer_1" xmlns="http://www.w3.org/2000/svg" xmlns:xlink="http://www.w3.org/1999/xlink" x="0px" y="0px"
	 width="100%" viewBox="0 0 500 500" enable-background="new 0 0 500 500" xml:space="preserve">
<path fill="#FFFFFF" opacity="1.000000" stroke="none" 
	d="
M225.000000,501.000000 
	C150.000015,501.000000 75.500038,501.000000 1.000040,501.000000 
	C1.000027,334.333405 1.000027,167.666779 1.000013,1.000129 
	C167.666565,1.000086 334.333130,1.000086 500.999756,1.000043 
	C500.999847,167.666534 500.999847,334.333069 500.999939,500.999817 
	C409.166656,501.000000 317.333344,501.000000 225.000000,501.000000 
M314.896240,172.186234 
	C319.308411,182.562546 323.634033,192.977081 328.190155,203.289795 
	C329.413361,206.058487 329.649414,208.324722 328.186188,211.143204 
	C325.461243,216.392120 323.203644,221.883682 320.458038,227.919525 
	C324.595337,227.919525 328.043549,227.680832 331.442322,227.988388 
	C334.676483,228.281021 335.972961,226.910431 337.174652,224.048950 
	C344.238342,207.228989 351.551605,190.513885 358.757629,173.753494 
	C359.315277,172.456482 359.695435,171.083160 360.306335,169.316681 
	C356.213593,169.316681 352.716217,169.556763 349.268616,169.245605 
	C346.149231,168.964050 344.910400,170.338760 344.017365,173.065048 
	C342.062897,179.031860 339.830566,184.907608 337.433563,191.596771 
	C335.851166,187.523636 334.500702,184.166550 333.238281,180.776672 
	C328.656860,168.474808 328.667999,168.470245 315.494202,169.495438 
	C315.333282,169.507950 315.178223,169.595856 314.128632,169.674576 
	C309.574585,170.862518 305.020569,172.050476 300.416565,173.251465 
	C300.296875,172.539307 300.034241,170.976318 299.813507,169.662567 
	C295.242096,169.662567 290.994781,169.662567 286.673706,169.662567 
	C286.673706,182.930450 286.673706,195.841644 286.673706,208.883179 
	C291.254242,208.883179 295.556122,208.883179 300.235687,208.883179 
	C300.235687,204.447876 300.234009,200.143387 300.236053,195.838913 
	C300.241058,185.296158 301.382324,184.118744 311.832306,183.818634 
	C312.111420,183.810623 312.383453,183.557114 313.065369,183.212799 
	C313.065369,179.463745 313.061066,175.500031 313.138824,171.537933 
	C313.139465,171.505249 314.249969,171.494324 314.896240,172.186234 
M143.516083,85.019623 
	C63.487782,112.481522 18.725780,193.720566 39.242493,276.242065 
	C60.646580,362.332733 140.414551,399.995575 193.885559,396.617767 
	C193.885559,378.758148 193.885559,360.893768 193.885559,343.043488 
	C134.936111,341.331848 92.890724,296.043365 89.148720,244.159622 
	C87.245529,217.771347 94.512703,193.969543 110.599052,173.176834 
	C131.583847,146.052536 159.685760,132.151627 193.966034,130.817291 
	C193.966034,112.736313 193.966034,95.009003 193.966034,77.319588 
	C181.200821,75.809608 161.638382,78.793655 143.516083,85.019623 
M192.538345,291.267853 
	C193.114487,289.620239 194.188538,287.974030 194.193314,286.324768 
	C194.291046,252.518524 194.266785,218.711914 194.266785,184.905380 
	C194.266785,183.330856 194.266785,181.756348 194.266785,180.204132 
	C165.924347,179.690842 140.268387,204.358353 139.150208,232.398102 
	C137.921906,263.199646 161.231079,289.368408 192.538345,291.267853 
M378.035065,223.366974 
	C378.035065,217.285751 378.035065,211.204514 378.035065,204.821838 
	C389.358246,212.418777 400.180389,209.970886 404.628204,199.011917 
	C407.223358,192.617767 407.261078,185.956680 404.697601,179.536148 
	C400.272766,168.453629 388.235504,165.616257 379.098907,173.312149 
	C378.894592,173.484268 378.497528,173.427551 378.188873,173.465912 
	C378.053986,172.168610 377.919067,170.871292 377.794067,169.669037 
	C373.201691,169.669037 368.791473,169.669037 364.425690,169.669037 
	C364.425690,189.230164 364.425690,208.442276 364.425690,227.958725 
	C368.184540,227.958725 371.668518,227.748398 375.114441,228.020477 
	C378.283417,228.270706 378.179138,226.440048 378.035065,223.366974 
M326.296692,246.779572 
	C321.611420,259.713623 316.926178,272.647675 312.155884,285.816437 
	C317.273895,285.816437 321.906372,285.816437 326.549438,285.816437 
	C327.583008,283.077484 328.554199,280.503784 329.520905,277.941956 
	C333.936981,277.941956 337.954071,278.212494 341.916779,277.864044 
	C345.699432,277.531464 347.763672,278.620056 348.589233,282.522552 
	C348.870239,283.850922 350.600647,285.710236 351.831360,285.845276 
	C355.738373,286.273956 359.722015,286.003845 364.229126,286.003845 
	C359.643097,273.312317 355.251953,261.147766 350.851898,248.986481 
	C345.972198,235.499588 345.968597,235.499649 331.484436,236.177383 
	C331.159058,236.192612 330.839050,236.322678 330.173462,236.480515 
	C329.041016,239.556412 327.840515,242.817200 326.296692,246.779572 
M246.924942,176.878662 
	C251.874481,170.096756 258.068329,169.622330 263.984375,175.492828 
	C264.729462,176.232147 265.821472,177.033813 266.782349,177.072617 
	C271.024078,177.243973 275.276642,177.146698 279.647736,177.146698 
	C276.432800,163.768326 265.524567,156.995056 251.343292,159.084793 
	C238.760910,160.938904 230.254044,172.299042 231.294296,185.858414 
	C232.411728,200.423691 242.016312,209.353531 256.468109,209.263672 
	C268.755981,209.187271 278.418701,201.459457 279.177643,190.907990 
	C277.175079,190.907990 275.185638,190.882278 273.197083,190.913315 
	C269.010895,190.978653 265.277679,190.639938 261.635559,194.543549 
	C257.035492,199.473892 247.846695,196.169922 246.278946,189.316940 
	C245.436966,185.636429 246.408661,181.541000 246.924942,176.878662 
M262.146606,238.157425 
	C255.548264,234.855804 248.715836,234.529572 241.798935,236.850357 
	C235.415833,238.992020 232.071152,243.418884 231.731842,249.682144 
	C231.378357,256.207214 233.973999,260.448669 240.450272,263.339325 
	C243.933075,264.893860 247.740570,265.773193 251.097870,267.535645 
	C252.878036,268.470154 254.162918,270.546509 255.273071,272.352295 
	C255.446518,272.634430 253.334747,275.159729 252.549973,275.028748 
	C250.544312,274.693878 248.647629,273.526123 246.795593,272.527832 
	C245.879684,272.034149 245.186829,270.624481 244.344528,270.581543 
	C240.256470,270.373230 236.151962,270.487488 231.695724,270.487488 
	C231.855179,276.417999 234.188416,280.340118 238.555649,283.077301 
	C244.222412,286.629059 250.450058,287.100616 256.855408,285.987549 
	C264.224518,284.707062 269.413055,279.523285 270.092041,272.973724 
	C270.838043,265.778412 267.997070,261.357605 260.312042,258.040283 
	C256.805237,256.526520 253.055191,255.505081 249.720367,253.697784 
	C248.295364,252.925507 247.441010,250.796661 246.787216,249.106369 
	C246.611267,248.651505 248.235580,246.788422 248.835007,246.879410 
	C250.613434,247.149399 252.355774,247.949051 253.986282,248.786743 
	C254.892609,249.252396 255.519485,250.803131 256.321106,250.841354 
	C260.694916,251.049942 265.083893,250.940598 269.571259,250.940598 
	C269.245728,245.118454 266.936401,241.307480 262.146606,238.157425 
M296.478973,255.305344 
	C294.704681,255.305344 292.930359,255.305344 291.079895,255.305344 
	C291.079895,252.325653 291.079895,249.961166 291.079895,247.138931 
	C297.097687,247.138931 302.695892,247.138931 308.295166,247.138931 
	C308.295166,243.264130 308.295166,239.858627 308.295166,236.414246 
	C297.697968,236.414246 287.462097,236.414246 277.144775,236.414246 
	C277.144775,253.053558 277.144775,269.394989 277.144775,285.722382 
	C287.745636,285.722382 297.976593,285.722382 308.317566,285.722382 
	C308.317566,282.030762 308.317566,278.635651 308.317566,274.849457 
	C302.379456,274.849457 296.773163,274.849457 290.983032,274.849457 
	C290.983032,271.751068 290.983032,269.051819 290.983032,265.915222 
	C296.215271,265.915222 301.133270,265.915222 306.152222,265.915222 
	C306.152222,262.230377 306.152222,258.997620 306.152222,255.305557 
	C303.024780,255.305557 300.233582,255.305557 296.478973,255.305344 
M372.674133,351.082977 
	C378.103912,353.069061 379.633728,352.589569 381.635864,347.939728 
	C378.724213,348.058228 375.471252,352.503082 373.002197,347.049652 
	C376.242249,346.904266 379.268707,346.768433 383.862000,346.562317 
	C381.948608,343.683197 381.090607,341.067902 379.336548,340.131927 
	C377.643127,339.228302 374.716278,339.400085 372.880219,340.264893 
	C369.383911,341.911652 369.260406,346.062042 372.674133,351.082977 
M310.078278,356.093658 
	C310.607513,356.727539 311.136719,357.361450 311.665985,357.995331 
	C312.094940,357.426788 312.829163,356.890778 312.893890,356.283417 
	C313.066986,354.658875 312.952881,353.003784 312.952881,351.060303 
	C314.054657,351.452637 314.885040,352.076599 315.486633,351.903870 
	C317.709442,351.265503 320.995880,350.936768 321.757080,349.422913 
	C322.816742,347.315521 322.766174,343.819824 321.656281,341.735504 
	C320.881500,340.280487 317.574127,339.986176 315.324646,339.568695 
	C313.763092,339.278900 312.076813,339.661194 310.074493,339.761932 
	C310.074493,344.915619 310.074493,350.040070 310.078278,356.093658 
M278.108093,347.958954 
	C281.857941,353.627838 286.084564,353.854218 289.489136,348.457001 
	C286.868103,347.100677 283.112335,353.013885 280.858185,346.757080 
	C284.146759,346.757080 287.044891,346.757080 289.926788,346.757080 
	C289.928375,341.452972 287.866364,338.988220 283.928406,339.109253 
	C279.932159,339.232056 278.046051,341.777344 278.108093,347.958954 
M390.724060,345.764771 
	C392.563507,346.529572 394.402924,347.294373 396.242371,348.059143 
	C396.044891,348.631104 395.847412,349.203033 395.649963,349.774994 
	C393.508423,349.205353 391.366882,348.635712 389.225342,348.066071 
	C389.001984,348.532349 388.778595,348.998627 388.555206,349.464935 
	C390.349426,350.364624 392.095062,351.824371 393.953278,351.985443 
	C395.420380,352.112640 398.074341,350.891754 398.328247,349.824127 
	C398.725159,348.155121 397.539001,346.109650 396.891754,343.741760 
	C397.093475,343.579498 397.879944,342.946899 398.692413,342.293365 
	C396.649902,338.768036 393.928925,338.296722 390.899261,339.946075 
	C388.556793,341.221283 388.195312,343.180847 390.724060,345.764771 
M246.912064,349.252258 
	C247.304504,350.172272 247.696945,351.092255 248.089386,352.012268 
	C248.638275,351.200287 249.474777,350.450592 249.667343,349.561432 
	C249.942719,348.289948 249.384354,346.771149 249.844177,345.623199 
	C250.423111,344.177795 251.669800,342.999878 252.628403,341.706573 
	C253.710831,343.069061 255.304672,344.285706 255.745499,345.831207 
	C256.289825,347.739563 255.875671,349.921356 255.875671,351.984985 
	C256.403839,352.028564 256.932007,352.072113 257.460205,352.115692 
	C259.668304,349.253357 259.045349,345.623505 258.051208,342.577606 
	C256.040131,336.415894 250.852646,340.710785 246.911819,339.352997 
	C246.911819,342.693451 246.911819,345.506897 246.912064,349.252258 
M359.144165,349.866089 
	C355.671417,349.930695 354.787201,347.592651 355.239716,344.913422 
	C356.379791,338.162933 361.167572,344.185394 364.116058,342.014038 
	C361.715118,340.619781 359.067413,339.283325 356.651367,339.618195 
	C353.230560,340.092316 351.635223,343.323639 352.504639,346.401794 
	C353.111755,348.551178 355.184021,350.935425 357.220490,351.877869 
	C360.154602,353.235718 362.080444,351.751007 364.279083,347.152985 
	C362.243652,348.307434 361.084839,348.964661 359.144165,349.866089 
M234.817230,338.155426 
	C236.375977,337.968414 237.934708,337.781403 239.493454,337.594421 
	C239.431915,337.195190 239.370377,336.795990 239.308823,336.396790 
	C236.509537,336.396790 233.710236,336.396790 231.157883,336.396790 
	C231.157883,341.830231 231.157883,346.895752 231.157883,351.498657 
	C234.165588,351.498657 236.801392,351.498657 239.437195,351.498657 
	C239.448532,351.114014 239.459885,350.729370 239.471222,350.344727 
	C237.522781,350.105408 235.574341,349.866089 233.553482,349.617859 
	C233.553482,348.012695 233.553482,346.627686 233.553482,345.287842 
	C235.569839,345.013794 237.277649,344.781647 238.985458,344.549530 
	C238.933975,344.136353 238.882477,343.723175 238.830978,343.309998 
	C237.097641,343.064148 235.364288,342.818298 233.083527,342.494812 
	C233.424103,340.972626 233.721725,339.642456 234.817230,338.155426 
M266.364410,336.944061 
	C266.403137,341.192230 266.105377,345.480499 266.605316,349.673676 
	C266.911011,352.237732 269.044617,352.494476 272.064880,350.825500 
	C267.821228,347.939026 267.803833,343.386200 272.271332,340.278259 
	C270.439209,338.933838 268.661560,337.629395 266.364410,336.944061 
M303.142944,339.374115 
	C301.198669,339.467926 299.254395,339.561737 297.062622,339.667480 
	C297.062622,343.335541 297.004730,346.784088 297.117096,350.227051 
	C297.136810,350.831177 297.870453,351.411957 298.274353,352.003571 
	C298.830719,351.581116 299.922943,351.050964 299.862946,350.752411 
	C298.981628,346.368591 300.775055,342.979950 303.142944,339.374115 
M329.919159,349.260803 
	C330.315155,350.176971 330.711151,351.093140 331.107117,352.009308 
	C331.646210,351.187592 332.711914,350.312683 332.635254,349.553101 
	C332.257843,345.813568 333.005432,342.672028 336.281006,340.443939 
	C336.353790,340.394440 336.095276,339.857941 336.022461,339.641357 
	C334.001190,339.641357 332.072174,339.641357 329.918915,339.641357 
	C329.918915,342.706818 329.918915,345.522552 329.919159,349.260803 
M345.754425,349.196686 
	C345.134125,345.893127 347.203278,341.965057 343.235077,338.088928 
	C343.235077,343.578674 343.235077,347.770752 343.235077,351.962830 
	C343.544983,352.100983 343.854889,352.239136 344.164764,352.377289 
	C344.691956,351.622162 345.219177,350.867004 345.754425,349.196686 
z"/>
<path fill="#4621DA" opacity="1.000000" stroke="none" 
	d="
M143.899323,84.918289 
	C161.638382,78.793655 181.200821,75.809608 193.966034,77.319588 
	C193.966034,95.009003 193.966034,112.736313 193.966034,130.817291 
	C159.685760,132.151627 131.583847,146.052536 110.599052,173.176834 
	C94.512703,193.969543 87.245529,217.771347 89.148720,244.159622 
	C92.890724,296.043365 134.936111,341.331848 193.885559,343.043488 
	C193.885559,360.893768 193.885559,378.758148 193.885559,396.617767 
	C140.414551,399.995575 60.646580,362.332733 39.242493,276.242065 
	C18.725780,193.720566 63.487782,112.481522 143.899323,84.918289 
z"/>
<path fill="#4621DA" opacity="1.000000" stroke="none" 
	d="
M192.059631,291.264465 
	C161.231079,289.368408 137.921906,263.199646 139.150208,232.398102 
	C140.268387,204.358353 165.924347,179.690842 194.266785,180.204132 
	C194.266785,181.756348 194.266785,183.330856 194.266785,184.905380 
	C194.266785,218.711914 194.291046,252.518524 194.193314,286.324768 
	C194.188538,287.974030 193.114487,289.620239 192.059631,291.264465 
z"/>
<path fill="#050505" opacity="1.000000" stroke="none" 
	d="
M378.035034,223.850540 
	C378.179138,226.440048 378.283417,228.270706 375.114441,228.020477 
	C371.668518,227.748398 368.184540,227.958725 364.425690,227.958725 
	C364.425690,208.442276 364.425690,189.230164 364.425690,169.669037 
	C368.791473,169.669037 373.201691,169.669037 377.794067,169.669037 
	C377.919067,170.871292 378.053986,172.168610 378.189636,173.471741 
	C378.497528,173.427551 378.894592,173.484268 379.098907,173.312149 
	C388.235504,165.616257 400.272766,168.453629 404.697601,179.536148 
	C407.261078,185.956680 407.223358,192.617767 404.628204,199.011917 
	C400.180389,209.970886 389.358246,212.418777 378.035065,204.821838 
	C378.035065,211.204514 378.035065,217.285751 378.035034,223.850540 
M392.362305,188.610062 
	C391.337067,182.986481 388.393127,180.324783 384.026764,181.073654 
	C380.022003,181.760498 377.418427,185.823029 378.123627,190.543594 
	C378.729279,194.598083 380.886871,197.344711 385.272858,197.276215 
	C390.242554,197.198608 392.078796,193.953415 392.362305,188.610062 
z"/>
<path fill="#611BEB" opacity="1.000000" stroke="none" 
	d="
M326.468323,246.428772 
	C327.840515,242.817200 329.041016,239.556412 330.173462,236.480515 
	C330.839050,236.322678 331.159058,236.192612 331.484436,236.177383 
	C345.968597,235.499649 345.972198,235.499588 350.851898,248.986481 
	C355.251953,261.147766 359.643097,273.312317 364.229126,286.003845 
	C359.722015,286.003845 355.738373,286.273956 351.831360,285.845276 
	C350.600647,285.710236 348.870239,283.850922 348.589233,282.522552 
	C347.763672,278.620056 345.699432,277.531464 341.916779,277.864044 
	C337.954071,278.212494 333.936981,277.941956 329.520905,277.941956 
	C328.554199,280.503784 327.583008,283.077484 326.549438,285.816437 
	C321.906372,285.816437 317.273895,285.816437 312.155884,285.816437 
	C316.926178,272.647675 321.611420,259.713623 326.468323,246.428772 
M334.026855,263.573029 
	C333.776093,264.638306 333.525330,265.703552 333.243225,266.901978 
	C336.653412,266.901978 339.736816,266.901978 343.350922,266.901978 
	C341.673248,261.950775 340.141205,257.429321 338.145447,251.539429 
	C336.501343,256.278412 335.371826,259.534058 334.026855,263.573029 
z"/>
<path fill="#050505" opacity="1.000000" stroke="none" 
	d="
M246.743439,177.255737 
	C246.408661,181.541000 245.436966,185.636429 246.278946,189.316940 
	C247.846695,196.169922 257.035492,199.473892 261.635559,194.543549 
	C265.277679,190.639938 269.010895,190.978653 273.197083,190.913315 
	C275.185638,190.882278 277.175079,190.907990 279.177643,190.907990 
	C278.418701,201.459457 268.755981,209.187271 256.468109,209.263672 
	C242.016312,209.353531 232.411728,200.423691 231.294296,185.858414 
	C230.254044,172.299042 238.760910,160.938904 251.343292,159.084793 
	C265.524567,156.995056 276.432800,163.768326 279.647736,177.146698 
	C275.276642,177.146698 271.024078,177.243973 266.782349,177.072617 
	C265.821472,177.033813 264.729462,176.232147 263.984375,175.492828 
	C258.068329,169.622330 251.874481,170.096756 246.743439,177.255737 
z"/>
<path fill="#611BEB" opacity="1.000000" stroke="none" 
	d="
M262.459045,238.361801 
	C266.936401,241.307480 269.245728,245.118454 269.571259,250.940598 
	C265.083893,250.940598 260.694916,251.049942 256.321106,250.841354 
	C255.519485,250.803131 254.892609,249.252396 253.986282,248.786743 
	C252.355774,247.949051 250.613434,247.149399 248.835007,246.879410 
	C248.235580,246.788422 246.611267,248.651505 246.787216,249.106369 
	C247.441010,250.796661 248.295364,252.925507 249.720367,253.697784 
	C253.055191,255.505081 256.805237,256.526520 260.312042,258.040283 
	C267.997070,261.357605 270.838043,265.778412 270.092041,272.973724 
	C269.413055,279.523285 264.224518,284.707062 256.855408,285.987549 
	C250.450058,287.100616 244.222412,286.629059 238.555649,283.077301 
	C234.188416,280.340118 231.855179,276.417999 231.695724,270.487488 
	C236.151962,270.487488 240.256470,270.373230 244.344528,270.581543 
	C245.186829,270.624481 245.879684,272.034149 246.795593,272.527832 
	C248.647629,273.526123 250.544312,274.693878 252.549973,275.028748 
	C253.334747,275.159729 255.446518,272.634430 255.273071,272.352295 
	C254.162918,270.546509 252.878036,268.470154 251.097870,267.535645 
	C247.740570,265.773193 243.933075,264.893860 240.450272,263.339325 
	C233.973999,260.448669 231.378357,256.207214 231.731842,249.682144 
	C232.071152,243.418884 235.415833,238.992020 241.798935,236.850357 
	C248.715836,234.529572 255.548264,234.855804 262.459045,238.361801 
z"/>
<path fill="#070707" opacity="1.000000" stroke="none" 
	d="
M315.020447,169.648590 
	C315.178223,169.595856 315.333282,169.507950 315.494202,169.495438 
	C328.667999,168.470245 328.656860,168.474808 333.238281,180.776672 
	C334.500702,184.166550 335.851166,187.523636 337.433563,191.596771 
	C339.830566,184.907608 342.062897,179.031860 344.017365,173.065048 
	C344.910400,170.338760 346.149231,168.964050 349.268616,169.245605 
	C352.716217,169.556763 356.213593,169.316681 360.306335,169.316681 
	C359.695435,171.083160 359.315277,172.456482 358.757629,173.753494 
	C351.551605,190.513885 344.238342,207.228989 337.174652,224.048950 
	C335.972961,226.910431 334.676483,228.281021 331.442322,227.988388 
	C328.043549,227.680832 324.595337,227.919525 320.458038,227.919525 
	C323.203644,221.883682 325.461243,216.392120 328.186188,211.143204 
	C329.649414,208.324722 329.413361,206.058487 328.190155,203.289795 
	C323.634033,192.977081 319.308411,182.562546 314.912201,171.526917 
	C314.958923,170.461258 314.989685,170.054932 315.020447,169.648590 
z"/>
<path fill="#621DEB" opacity="1.000000" stroke="none" 
	d="
M296.960693,255.305450 
	C300.233582,255.305557 303.024780,255.305557 306.152222,255.305557 
	C306.152222,258.997620 306.152222,262.230377 306.152222,265.915222 
	C301.133270,265.915222 296.215271,265.915222 290.983032,265.915222 
	C290.983032,269.051819 290.983032,271.751068 290.983032,274.849457 
	C296.773163,274.849457 302.379456,274.849457 308.317566,274.849457 
	C308.317566,278.635651 308.317566,282.030762 308.317566,285.722382 
	C297.976593,285.722382 287.745636,285.722382 277.144775,285.722382 
	C277.144775,269.394989 277.144775,253.053558 277.144775,236.414246 
	C287.462097,236.414246 297.697968,236.414246 308.295166,236.414246 
	C308.295166,239.858627 308.295166,243.264130 308.295166,247.138931 
	C302.695892,247.138931 297.097687,247.138931 291.079895,247.138931 
	C291.079895,249.961166 291.079895,252.325653 291.079895,255.305344 
	C292.930359,255.305344 294.704681,255.305344 296.960693,255.305450 
z"/>
<path fill="#0A0A0A" opacity="1.000000" stroke="none" 
	d="
M314.574554,169.661591 
	C314.989685,170.054932 314.958923,170.461258 314.885223,171.170410 
	C314.249969,171.494324 313.139465,171.505249 313.138824,171.537933 
	C313.061066,175.500031 313.065369,179.463745 313.065369,183.212799 
	C312.383453,183.557114 312.111420,183.810623 311.832306,183.818634 
	C301.382324,184.118744 300.241058,185.296158 300.236053,195.838913 
	C300.234009,200.143387 300.235687,204.447876 300.235687,208.883179 
	C295.556122,208.883179 291.254242,208.883179 286.673706,208.883179 
	C286.673706,195.841644 286.673706,182.930450 286.673706,169.662567 
	C290.994781,169.662567 295.242096,169.662567 299.813507,169.662567 
	C300.034241,170.976318 300.296875,172.539307 300.416565,173.251465 
	C305.020569,172.050476 309.574585,170.862518 314.574554,169.661591 
z"/>
<path fill="#242424" opacity="1.000000" stroke="none" 
	d="
M372.350464,350.842102 
	C369.260406,346.062042 369.383911,341.911652 372.880219,340.264893 
	C374.716278,339.400085 377.643127,339.228302 379.336548,340.131927 
	C381.090607,341.067902 381.948608,343.683197 383.862000,346.562317 
	C379.268707,346.768433 376.242249,346.904266 373.002197,347.049652 
	C375.471252,352.503082 378.724213,348.058228 381.635864,347.939728 
	C379.633728,352.589569 378.103912,353.069061 372.350464,350.842102 
z"/>
<path fill="#212121" opacity="1.000000" stroke="none" 
	d="
M310.076385,355.629089 
	C310.074493,350.040070 310.074493,344.915619 310.074493,339.761932 
	C312.076813,339.661194 313.763092,339.278900 315.324646,339.568695 
	C317.574127,339.986176 320.881500,340.280487 321.656281,341.735504 
	C322.766174,343.819824 322.816742,347.315521 321.757080,349.422913 
	C320.995880,350.936768 317.709442,351.265503 315.486633,351.903870 
	C314.885040,352.076599 314.054657,351.452637 312.952881,351.060303 
	C312.952881,353.003784 313.066986,354.658875 312.893890,356.283417 
	C312.829163,356.890778 312.094940,357.426788 311.665955,357.995331 
	C311.136719,357.361450 310.607513,356.727539 310.076385,355.629089 
M313.264832,343.814301 
	C314.019531,345.755798 314.774200,347.697296 315.528870,349.638763 
	C316.943207,349.080719 319.143127,348.871124 319.582489,347.880615 
	C320.197266,346.494843 320.031769,343.422638 319.248993,343.045349 
	C317.768036,342.331573 315.610046,343.022522 313.264832,343.814301 
z"/>
<path fill="#212121" opacity="1.000000" stroke="none" 
	d="
M278.034760,347.560303 
	C278.046051,341.777344 279.932159,339.232056 283.928406,339.109253 
	C287.866364,338.988220 289.928375,341.452972 289.926788,346.757080 
	C287.044891,346.757080 284.146759,346.757080 280.858185,346.757080 
	C283.112335,353.013885 286.868103,347.100677 289.489136,348.457001 
	C286.084564,353.854218 281.857941,353.627838 278.034760,347.560303 
z"/>
<path fill="#212121" opacity="1.000000" stroke="none" 
	d="
M390.431000,345.518036 
	C388.195312,343.180847 388.556793,341.221283 390.899261,339.946075 
	C393.928925,338.296722 396.649902,338.768036 398.692413,342.293365 
	C397.879944,342.946899 397.093475,343.579498 396.891754,343.741760 
	C397.539001,346.109650 398.725159,348.155121 398.328247,349.824127 
	C398.074341,350.891754 395.420380,352.112640 393.953278,351.985443 
	C392.095062,351.824371 390.349426,350.364624 388.555206,349.464935 
	C388.778595,348.998627 389.001984,348.532349 389.225342,348.066071 
	C391.366882,348.635712 393.508423,349.205353 395.649963,349.774994 
	C395.847412,349.203033 396.044891,348.631104 396.242371,348.059143 
	C394.402924,347.294373 392.563507,346.529572 390.431000,345.518036 
M392.158569,343.452057 
	C393.313843,343.818115 394.469116,344.184174 395.624390,344.550232 
	C395.730804,343.841095 395.837219,343.131958 395.943604,342.422821 
	C394.649597,342.422821 393.355560,342.422821 392.158569,343.452057 
z"/>
<path fill="#242424" opacity="1.000000" stroke="none" 
	d="
M246.911942,348.786285 
	C246.911819,345.506897 246.911819,342.693451 246.911819,339.352997 
	C250.852646,340.710785 256.040131,336.415894 258.051208,342.577606 
	C259.045349,345.623505 259.668304,349.253357 257.460205,352.115692 
	C256.932007,352.072113 256.403839,352.028564 255.875671,351.984985 
	C255.875671,349.921356 256.289825,347.739563 255.745499,345.831207 
	C255.304672,344.285706 253.710831,343.069061 252.628387,341.706573 
	C251.669800,342.999878 250.423111,344.177795 249.844177,345.623199 
	C249.384354,346.771149 249.942719,348.289948 249.667343,349.561432 
	C249.474777,350.450592 248.638275,351.200287 248.089386,352.012268 
	C247.696945,351.092255 247.304504,350.172272 246.911942,348.786285 
z"/>
<path fill="#212121" opacity="1.000000" stroke="none" 
	d="
M359.535095,349.743988 
	C361.084839,348.964661 362.243652,348.307434 364.279083,347.152985 
	C362.080444,351.751007 360.154602,353.235718 357.220490,351.877869 
	C355.184021,350.935425 353.111755,348.551178 352.504639,346.401794 
	C351.635223,343.323639 353.230560,340.092316 356.651367,339.618195 
	C359.067413,339.283325 361.715118,340.619781 364.116058,342.014038 
	C361.167572,344.185394 356.379791,338.162933 355.239716,344.913422 
	C354.787201,347.592651 355.671417,349.930695 359.535095,349.743988 
z"/>
<path fill="#050505" opacity="1.000000" stroke="none" 
	d="
M234.418289,338.233856 
	C233.721725,339.642456 233.424103,340.972626 233.083527,342.494812 
	C235.364288,342.818298 237.097641,343.064148 238.830978,343.309998 
	C238.882477,343.723175 238.933975,344.136353 238.985458,344.549530 
	C237.277649,344.781647 235.569839,345.013794 233.553482,345.287842 
	C233.553482,346.627686 233.553482,348.012695 233.553482,349.617859 
	C235.574341,349.866089 237.522781,350.105408 239.471222,350.344727 
	C239.459885,350.729370 239.448532,351.114014 239.437195,351.498657 
	C236.801392,351.498657 234.165588,351.498657 231.157883,351.498657 
	C231.157883,346.895752 231.157883,341.830231 231.157883,336.396790 
	C233.710236,336.396790 236.509537,336.396790 239.308823,336.396790 
	C239.370377,336.795990 239.431915,337.195190 239.493454,337.594421 
	C237.934708,337.781403 236.375977,337.968414 234.418289,338.233856 
z"/>
<path fill="#282828" opacity="1.000000" stroke="none" 
	d="
M266.624146,336.634521 
	C268.661560,337.629395 270.439209,338.933838 272.271332,340.278259 
	C267.803833,343.386200 267.821228,347.939026 272.064880,350.825500 
	C269.044617,352.494476 266.911011,352.237732 266.605316,349.673676 
	C266.105377,345.480499 266.403137,341.192230 266.624146,336.634521 
z"/>
<path fill="#282828" opacity="1.000000" stroke="none" 
	d="
M303.385040,339.653290 
	C300.775055,342.979950 298.981628,346.368591 299.862946,350.752411 
	C299.922943,351.050964 298.830719,351.581116 298.274353,352.003540 
	C297.870453,351.411957 297.136810,350.831177 297.117096,350.227051 
	C297.004730,346.784088 297.062622,343.335541 297.062622,339.667480 
	C299.254395,339.561737 301.198669,339.467926 303.385040,339.653290 
z"/>
<path fill="#212121" opacity="1.000000" stroke="none" 
	d="
M329.919037,348.799561 
	C329.918915,345.522552 329.918915,342.706818 329.918915,339.641357 
	C332.072174,339.641357 334.001190,339.641357 336.022461,339.641357 
	C336.095276,339.857941 336.353790,340.394440 336.281006,340.443939 
	C333.005432,342.672028 332.257843,345.813568 332.635254,349.553101 
	C332.711914,350.312683 331.646210,351.187592 331.107117,352.009308 
	C330.711151,351.093140 330.315155,350.176971 329.919037,348.799561 
z"/>
<path fill="#282828" opacity="1.000000" stroke="none" 
	d="
M345.750397,349.654266 
	C345.219177,350.867004 344.691956,351.622162 344.164764,352.377289 
	C343.854889,352.239136 343.544983,352.100983 343.235077,351.962830 
	C343.235077,347.770752 343.235077,343.578674 343.235077,338.088928 
	C347.203278,341.965057 345.134125,345.893127 345.750397,349.654266 
z"/>
<path fill="#F8F8F8" opacity="1.000000" stroke="none" 
	d="
M392.371704,189.037460 
	C392.078796,193.953415 390.242554,197.198608 385.272858,197.276215 
	C380.886871,197.344711 378.729279,194.598083 378.123627,190.543594 
	C377.418427,185.823029 380.022003,181.760498 384.026764,181.073654 
	C388.393127,180.324783 391.337067,182.986481 392.371704,189.037460 
z"/>
<path fill="#F8F8F8" opacity="1.000000" stroke="none" 
	d="
M334.134583,263.181366 
	C335.371826,259.534058 336.501343,256.278412 338.145447,251.539429 
	C340.141205,257.429321 341.673248,261.950775 343.350922,266.901978 
	C339.736816,266.901978 336.653412,266.901978 333.243225,266.901978 
	C333.525330,265.703552 333.776093,264.638306 334.134583,263.181366 
z"/>
<path fill="#F8F8F8" opacity="1.000000" stroke="none" 
	d="
M313.499084,343.472046 
	C315.610046,343.022522 317.768036,342.331573 319.248993,343.045349 
	C320.031769,343.422638 320.197266,346.494843 319.582489,347.880615 
	C319.143127,348.871124 316.943207,349.080719 315.528870,349.638794 
	C314.774200,347.697296 314.019531,345.755798 313.499084,343.472046 
z"/>
<path fill="#FFFFFF" opacity="1.000000" stroke="none" 
	d="
M392.110046,342.937439 
	C393.355560,342.422821 394.649597,342.422821 395.943604,342.422821 
	C395.837219,343.131958 395.730804,343.841095 395.624390,344.550232 
	C394.469116,344.184174 393.313843,343.818115 392.110046,342.937439 
z"/>
</svg>